<?xml version="1.0" encoding="UTF-8"?>
<svg id="Layer_1" data-name="Layer 1" xmlns="http://www.w3.org/2000/svg" xmlns:xlink="http://www.w3.org/1999/xlink" viewBox="0 0 219.21 205.9">
  <defs>
    <style>
      .cls-1, .cls-2 {
        fill: none;
      }

      .cls-2 {
        stroke: #ec2024;
        stroke-width: 3px;
      }

      .cls-2, .cls-3 {
        stroke-miterlimit: 10;
      }

      .cls-4 {
        clip-path: url(#clippath);
      }

      .cls-5 {
        fill: #ec2024;
      }

      .cls-6 {
        fill: #fff;
      }

      .cls-7 {
        fill: #24b4f5;
      }

      .cls-3 {
        fill: #ffebd2;
        stroke: #c42126;
        stroke-width: 2px;
      }

      .cls-8 {
        clip-path: url(#clippath-1);
      }
    </style>
    <clipPath id="clippath">
      <rect class="cls-1" x="49.01" y="115.89" width="135.11" height="54.1"/>
    </clipPath>
    <clipPath id="clippath-1">
      <circle class="cls-1" cx="112.49" cy="103.18" r="65.22"/>
    </clipPath>
  </defs>
  <line class="cls-2" x1="80.02" y1="122.1" x2="103.18" y2="122.1"/>
  <g>
    <circle class="cls-3" cx="112.49" cy="103.18" r="85.55"/>
    <circle class="cls-5" cx="112.49" cy="103.18" r="65.22"/>
    <g class="cls-4">
      <path class="cls-7" d="M177.72,103.18c0,36.03-29.21,65.23-65.23,65.23s-65.22-29.2-65.22-65.23S76.47,37.96,112.49,37.96s65.23,29.2,65.23,65.22Z"/>
    </g>
    <rect class="cls-5" x="130.49" y="103.18" width="4.71" height="9.78"/>
    <g class="cls-8">
      <g>
        <rect class="cls-6" x="41.42" y="105.32" width="136.3" height="20.03"/>
        <rect class="cls-6" x="68.87" y="101.55" width="8.31" height="37.27"/>
        <rect class="cls-6" x="95.6" y="101.55" width="8.31" height="37.27"/>
        <rect class="cls-6" x="122.33" y="101.55" width="8.31" height="37.27"/>
        <rect class="cls-6" x="149.06" y="101.55" width="8.31" height="37.27"/>
      </g>
    </g>
  </g>
</svg>