<svg xmlns="http://www.w3.org/2000/svg" viewBox="0 0 100 100">
  <defs>
    <linearGradient id="bodyGradRed" x1="0%" y1="0%" x2="100%" y2="100%">
      <stop offset="0%" stop-color="#8a5a4a"/>
      <stop offset="50%" stop-color="#50322c"/>
      <stop offset="100%" stop-color="#34201a"/>
    </linearGradient>
    <filter id="afterburnerRed">
      <feGaussianBlur stdDeviation="2"/>
    </filter>
  </defs>
  <g>
    <!-- Afterburner Trails (Action) -->
    <path d="M20 80 Q10 85, 0 90" stroke="#ff9500" stroke-width="3" stroke-linecap="round" filter="url(#afterburnerRed)" opacity="0.8"/>
    <path d="M30 75 Q20 80, 10 90" stroke="#ff9500" stroke-width="3" stroke-linecap="round" filter="url(#afterburnerRed)" opacity="0.8"/>

    <!-- Jet Body (Isometric/Banking) -->
    <!-- Left Wing -->
    <path d="M10 50 L40 40 L45 60 L10 50" fill="#34201a" stroke="#1a2634"/>
    
    <!-- Fuselage -->
    <path d="M40 40 L80 20 L90 25 L50 80 L40 70 Z" fill="url(#bodyGradRed)" stroke="#34201a" />
    
    <!-- Right Wing (Tilted up) -->
    <path d="M80 20 L95 10 L90 40 L80 20" fill="#50322c" stroke="#34201a"/>
    
    <!-- Cockpit Canopy (Reflective) -->
    <path d="M60 35 L75 30 L72 35 Z" fill="#ffeeaa" stroke="#ff9500" stroke-width="0.5"/>
    
    <!-- Vertical Stabilizers -->
    <path d="M45 65 L35 75 L50 75 Z" fill="#34201a"/>
    <path d="M55 25 L65 15 L70 25 Z" fill="#34201a"/>
    
    <!-- Team Glow (Rim Light) -->
    <path d="M80 20 L90 25 L50 80" fill="none" stroke="#ff9500" stroke-width="1.5" stroke-opacity="0.8"/>
  </g>
</svg>