<svg xmlns="http://www.w3.org/2000/svg" viewBox="0 0 100 100">
  <defs>
    <linearGradient id="bodyGradRed" x1="0%" y1="0%" x2="100%" y2="0%">
      <stop offset="0%" stop-color="#50322c"/>
      <stop offset="50%" stop-color="#8a5a4a"/>
      <stop offset="100%" stop-color="#50322c"/>
    </linearGradient>
  </defs>
  <g>
    <!-- Tracks -->
    <rect x="15" y="20" width="15" height="60" rx="3" fill="#111" />
    <rect x="70" y="20" width="15" height="60" rx="3" fill="#111" />
    
    <!-- Dozer Blade (Front) -->
    <path d="M10 85 L90 85 L85 95 L15 95 Z" fill="#5e4034" stroke="#34201a"/>
    <path d="M20 85 L25 80 L75 80 L80 85" fill="#50322c" stroke="#34201a"/>
    
    <!-- Main Chassis -->
    <rect x="30" y="25" width="40" height="50" fill="url(#bodyGradRed)" stroke="#34201a" />
    
    <!-- Crane Arm Base -->
    <circle cx="50" cy="50" r="12" fill="#5e4034" stroke="#34201a"/>
    
    <!-- Crane Arm Segments (Folded) -->
    <rect x="45" y="25" width="10" height="25" rx="3" fill="#605050" stroke="#34201a"/>
    <rect x="42" y="10" width="16" height="20" rx="3" fill="#605050" stroke="#34201a"/>
    
    <!-- Claw/Bucket -->
    <path d="M40 10 L60 10 L65 15 L35 15 Z" fill="#aaa" stroke="#111"/>
    
    <!-- Markings -->
    <rect x="42" y="10" width="16" height="5" fill="#f1c40f" stroke="none" opacity="0.8"/> <!-- Hazard Stripe -->
    <path d="M44 10 L49 15 M52 10 L57 15" stroke="#111" stroke-width="1"/>
  </g>
</svg>