<svg xmlns="http://www.w3.org/2000/svg" viewBox="0 0 100 100">
  <defs>
    <linearGradient id="bunkerGradRed" x1="0%" y1="0%" x2="100%" y2="0%">
      <stop offset="0%" stop-color="#50322c"/>
      <stop offset="50%" stop-color="#7a4a3e"/>
      <stop offset="100%" stop-color="#50322c"/>
    </linearGradient>
    <linearGradient id="flagGradRed" x1="0%" y1="0%" x2="100%" y2="0%">
      <stop offset="0%" stop-color="#7b241c"/>
      <stop offset="20%" stop-color="#c0392b"/>
      <stop offset="40%" stop-color="#e74c3c"/>
      <stop offset="60%" stop-color="#c0392b"/>
      <stop offset="80%" stop-color="#922b21"/>
      <stop offset="100%" stop-color="#7b241c"/>
    </linearGradient>
  </defs>
  <g>
    <!-- Base Plate -->
    <path d="M10 75 L90 75 L95 85 L5 85 Z" fill="#34201a" stroke="#111"/>

    <!-- Main Bunker Body (Preserved Shape) -->
    <g>
        <path d="M20 75 L15 50 L30 35 L70 35 L85 50 L80 75 Z" fill="url(#bunkerGradRed)" stroke="#34201a" stroke-width="2"/>
    </g>
    
    <!-- Shading for Depth (Side Faces) -->
    <path d="M15 50 L30 35 L30 75 L20 75 Z" fill="#34201a" opacity="0.4"/> <!-- Left darker side -->
    <path d="M85 50 L70 35 L70 75 L80 75 Z" fill="#34201a" opacity="0.4"/> <!-- Right darker side -->

    <!-- Bunker Roof details -->
    <path d="M30 35 L70 35 L65 55 L35 55 Z" fill="#4a3b36" stroke="#34201a" opacity="0.8" stroke-width="1.5"/>
    
    <!-- Firing Slits / Windows -->
    <rect x="25" y="45" width="10" height="3" fill="#111" stroke="#34201a" stroke-width="1"/>
    <rect x="65" y="45" width="10" height="3" fill="#111" stroke="#34201a" stroke-width="1"/>
    <rect x="45" y="48" width="10" height="4" fill="#000" stroke="#34201a" stroke-width="1"/> <!-- Central door/port -->

    <!-- Flag Pole -->
    <rect x="48" y="10" width="4" height="65" fill="#7f8c8d" stroke="#555" stroke-width="1"/>
    <circle cx="50" cy="10" r="3" fill="#f1c40f" stroke="#b8860b" stroke-width="1"/> <!-- Gold Topper -->

    <!-- The Flag (Dynamic & Complex) -->
    <!-- Main Cloth -->
    <path d="M52 12 Q70 5, 85 15 T98 30 L52 35 Z" fill="url(#flagGradRed)" stroke="#5e1510" stroke-width="1"/>
    
    <!-- Top Edge Highlight -->
    <path d="M52 12 Q70 5, 85 15 T98 30" fill="none" stroke="#ff8a80" stroke-width="1.5" opacity="0.6"/>
    
    <!-- Deep Folds/Shadows -->
    <path d="M52 12 C 65 15, 65 30, 55 35" fill="none" stroke="#5e1510" stroke-width="1" opacity="0.3"/>
    <path d="M70 10 C 75 20, 80 25, 75 33" fill="none" stroke="#5e1510" stroke-width="1" opacity="0.3"/>
    
    <!-- Fabric Ripples -->
    <path d="M60 15 Q75 10, 88 18" fill="none" stroke="#e74c3c" stroke-width="1" opacity="0.5"/>
    <path d="M55 25 Q70 20, 85 28" fill="none" stroke="#922b21" stroke-width="1" opacity="0.5"/>
  </g>
</svg>