<svg xmlns="http://www.w3.org/2000/svg" viewBox="0 0 100 100">
  <defs>
    <radialGradient id="flame" cx="50%" cy="50%" r="50%">
      <stop offset="0%" stop-color="#fff"/>
      <stop offset="50%" stop-color="#ffcc00"/>
      <stop offset="100%" stop-color="#ff4400"/>
    </radialGradient>
    <linearGradient id="bodyGradRed" x1="0%" y1="0%" x2="0%" y2="100%">
      <stop offset="0%" stop-color="#ffeecc"/>
      <stop offset="50%" stop-color="#50322c"/>
      <stop offset="100%" stop-color="#34201a"/>
    </linearGradient>
    <filter id="blurFlame">
      <feGaussianBlur stdDeviation="3"/>
    </filter>
  </defs>
  <g>
    <!-- Flame Trail -->
    <path d="M50 85 L45 100 L50 95 L55 100 L50 85" fill="url(#flame)" filter="url(#blurFlame)"/>
    <path d="M50 85 L48 95 L50 92 L52 95 L50 85" fill="#fff" opacity="0.8"/>

    <!-- Missile Body -->
    <path d="M50 5 Q55 10, 60 25 L60 85 L40 85 L40 25 Q45 10, 50 5 Z" 
          fill="url(#bodyGradRed)" stroke="#34201a" />
          
    <!-- Fins -->
    <path d="M40 75 L20 90 L40 85" fill="#50322c" stroke="#34201a"/>
    <path d="M60 75 L80 90 L60 85" fill="#50322c" stroke="#34201a"/>
    
    <!-- Mid Fins -->
    <path d="M40 40 L30 50 L40 50" fill="#50322c" stroke="#34201a"/>
    <path d="M60 40 L70 50 L60 50" fill="#50322c" stroke="#34201a"/>
    
    <!-- Warhead Markings -->
    <path d="M40 25 L60 25" stroke="#FFFFFF" stroke-width="0.5"/>
    <path d="M50 35 L55 40 L45 40 Z" fill="#ff9500"/>
    <circle cx="50" cy="38" r="1.5" fill="#111"/>
  </g>
</svg>