<svg xmlns="http://www.w3.org/2000/svg" width="720mm" height="780mm" viewBox="0 0 720 780"><defs><linearGradient id="b" x1="0%" x2="0%" y1="0%" y2="100%"><stop offset="0%" style="stop-color:#007b8c;stop-opacity:1"/><stop offset="100%" style="stop-color:#004b59;stop-opacity:1"/></linearGradient><linearGradient id="g" x1="0%" x2="0%" y1="100%" y2="0%"><stop offset="0%" style="stop-color:#a87b51;stop-opacity:1"/><stop offset="100%" style="stop-color:#c28f5a;stop-opacity:1"/></linearGradient><linearGradient id="h" x1="0%" x2="0%" y1="100%" y2="0%"><stop offset="0%" style="stop-color:#c28f5a;stop-opacity:1"/><stop offset="100%" style="stop-color:#dba56b;stop-opacity:1"/></linearGradient><linearGradient id="i" x1="0%" x2="0%" y1="100%" y2="0%"><stop offset="0%" style="stop-color:#dba56b;stop-opacity:1"/><stop offset="100%" style="stop-color:#f2bc7e;stop-opacity:1"/></linearGradient><pattern id="d" width="100" height="100" patternUnits="userSpaceOnUse" viewBox="0 0 100 100"><path fill="none" stroke="#8a3b2e" stroke-width=".5" d="M0 20q25-5 50 0t50 0M0 50q25 5 50 0t50 0M0 80q25-5 50 0t50 0" opacity=".3"/></pattern><pattern id="j" width="20" height="20" patternUnits="userSpaceOnUse"><path fill="#205060" d="M0 0h20v20H0z" opacity=".8"/><path fill="#d4af37" d="m10 0 10 10-10 10L0 10Z" opacity=".9"/><circle cx="10" cy="10" r="3" fill="#007b8c"/></pattern><pattern id="e" width="40" height="40" patternUnits="userSpaceOnUse" viewBox="0 0 40 40"><path fill="#b88a44" d="m20 0 3 17 17 3-17 3-3 17-3-17-17-3 17-3Z" opacity=".1"/></pattern><filter id="c" width="100%" height="100%" x="0%" y="0%" filterUnits="objectBoundingBox"><feTurbulence baseFrequency="0.01 0.02" numOctaves="2" result="turbulence" seed="2"/><feDisplacementMap in="SourceGraphic" in2="turbulence" result="displaced" scale="15" xChannelSelector="R" yChannelSelector="G"/><feSpecularLighting in="turbulence" lighting-color="#a3c2e0" result="highlights" specularConstant=".5" specularExponent="20" surfaceScale="2"><feDistantLight azimuth="45" elevation="60"/></feSpecularLighting><feComposite in="highlights" in2="displaced" operator="in" result="highlightsClipped"/><feComposite in="displaced" in2="highlightsClipped" k2="1" k3=".6" operator="arithmetic" result="waterWithLight"/><feComposite in="waterWithLight" in2="SourceGraphic" operator="in"/></filter><filter id="a" filterUnits="objectBoundingBox"><feTurbulence baseFrequency=".01" numOctaves="4" result="noise" seed="1" type="fractalNoise"/><feDiffuseLighting in="noise" lighting-color="#fff8e7" result="diffuse" surfaceScale="2"><feDistantLight azimuth="45" elevation="25"/></feDiffuseLighting><feComposite in="diffuse" in2="SourceGraphic" operator="in" result="lighting"/><feComposite in="SourceGraphic" in2="lighting" k2="1" k3=".4" operator="arithmetic"/></filter><filter id="f"><feDropShadow dx="1" dy="2" flood-color="#000" flood-opacity=".5" stdDeviation="2"/></filter></defs><path d="M0 0h720v780H0z" style="opacity:1;fill:none;fill-opacity:.995866;fill-rule:evenodd;stroke:#000;stroke-width:0;stroke-linecap:butt;stroke-dasharray:none;stroke-dashoffset:0;paint-order:markers fill stroke"/><g style="stroke-width:.5;stroke-dasharray:none"><path d="M-887.836-154.247h599.43v659.43h-599.43z" style="display:inline;fill:#db8;fill-opacity:1;fill-rule:evenodd;stroke:#8a6a44;stroke-width:1.5;stroke-linecap:round;stroke-dasharray:none;stroke-dashoffset:6.05737;filter:url(#a)" transform="matrix(1.01679 0 0 1.01526 958.07 211.675)"/><path d="M-887.836-154.247h599.43v659.43h-599.43z" style="fill:url(#b);fill-opacity:1;fill-rule:evenodd;stroke:#8a6a44;stroke-width:1.5;stroke-linecap:round;stroke-dasharray:none;stroke-dashoffset:6.05737;filter:url(#c)" transform="translate(948.352 214.574)"/><path d="M-887.836-154.247h599.43v659.43h-599.43z" style="fill:url(#d);fill-opacity:1;stroke:none;opacity:.4;pointer-events:none;mix-blend-mode:overlay" transform="translate(948.352 214.574)"/></g><g style="stroke-width:.5;stroke-dasharray:none"><path d="M-719.181 120.121h479.416v299.416h-479.416z" style="fill:#e6cfa0;fill-opacity:1;fill-rule:evenodd;stroke:#8a6a44;stroke-width:1.5;stroke-linecap:butt;stroke-dasharray:none;stroke-dashoffset:6.05737;paint-order:markers fill stroke" transform="translate(899.722 300.072)"/><path fill="url(#e)" d="M-719.181 120.121h479.416v299.416h-479.416z" pointer-events="none" transform="translate(899.722 300.072)"/><path d="M-719.376-239.543h479.416V59.873h-479.416z" style="fill:#e6cfa0;fill-opacity:1;fill-rule:evenodd;stroke:#8a6a44;stroke-width:1.5;stroke-linecap:round;stroke-dasharray:none;stroke-dashoffset:6.05737" transform="translate(899.722 300.072)"/><path fill="url(#e)" d="M-719.376-239.543h479.416V59.873h-479.416z" pointer-events="none" transform="translate(899.722 300.072)"/></g><g stroke="#8a3b2e" stroke-dasharray="8,8" stroke-width="1.5"><path d="M180.722 420.072h480M180.722 61.072h480" opacity=".3"/></g><g style="opacity:.6;filter:url(#a)url(#f)" transform="translate(899.722 300.072)"><path d="M-680-120c20-60 100-80 180-60s140-20 200 40c20 20 20 60-20 60-60-10-130 10-160 20-40 10-120 0-200-60" style="fill:url(#g);stroke:none"/><path d="M-650-130c20-40 80-55 150-40s120-10 170 30c10 10-10 40-50 40s-80 20-120 20c-50 0-100-10-150-50" style="fill:url(#h);stroke:none"/><path d="M-620-140c20-20 60-30 110-20s90-5 130 20c-10 20-60 30-120 40-40 5-80-10-120-40" style="fill:url(#i);stroke:none"/><path d="M-630 200c35-20 85-10 105 20 20 40-5 90-45 100-45 10-90-30-100-70-5-35 20-60 40-50" style="fill:url(#g);stroke:none"/><path d="M-615 215c30-15 70-5 85 20 15 35-5 75-40 85s-75-25-85-60c-5-30 15-50 40-45" style="fill:url(#h);stroke:none"/><path d="M-600 230c20-10 50-5 60 15 10 25-5 50-30 55s-55-20-60-40c-5-15 10-25 30-30" style="fill:url(#i);stroke:none"/><path d="M-500 409c20-29 30-39 60-34s60-15 90-55 70 0 101-20v109z" style="fill:url(#g);stroke:none"/><path d="M-480 409c20-19 30-29 50-24 30 5 60-15 85-50 30-35 75 5 96-15v89z" style="fill:url(#h);stroke:none"/><path d="M-460 409c20-9 30-19 50-14s50-15 70-45c30-30 80 10 91-10v69z" style="fill:url(#i);stroke:none"/></g><g style="opacity:.85;mix-blend-mode:normal"><g opacity=".9"><path fill="#c2b280" stroke="#8a7b50" d="M349.722 320.072h40v15h-40zM429.722 325.072h30v10h-30zM569.722 315.072h25v15h-25z"/><g fill="#ded2a8" stroke="#a89b6d" transform="translate(899.722 300.072)"><rect width="20" height="6" x="-540" y="25" rx="2" transform="rotate(-15 -530 28)"/><rect width="18" height="5" x="-460" y="30" rx="2" transform="rotate(25 -450 32)"/><rect width="15" height="5" x="-320" y="18" rx="2" transform="rotate(10 -310 20)"/></g><g fill="#b8a873" stroke="#80724a" stroke-width=".5"><path d="m199.722 100.072 10 5 5-10zM219.722 105.072l8 2 2-8zM419.722 80.072l12 4-2-8zM619.722 160.072l10 6 4-8z"/></g><path fill="#c2b280" stroke="#8a7b50" d="M349.722 445.072h35v15h-35zM439.722 455.072h40v10h-40zM559.722 440.072h30v15h-30z"/><g fill="#ded2a8" stroke="#a89b6d" transform="translate(899.722 300.072)"><rect width="22" height="6" x="-545" y="150" rx="2" transform="rotate(15 -535 153)"/><rect width="15" height="5" x="-450" y="158" rx="2" transform="rotate(-20 -440 160)"/><rect width="18" height="5" x="-330" y="145" rx="2" transform="rotate(-5 -320 147)"/></g><g fill="#b8a873" stroke="#80724a" stroke-width=".5"><path d="m449.722 550.072 8-4 5 8zM519.722 540.072l10 2 2 6zM579.722 560.072l6-5 8 4z"/></g></g><g fill="#4b6e4b" opacity=".8" transform="translate(899.722 300.072)"><circle cx="-530" cy="15" r="4"/><circle cx="-534" cy="12" r="3"/><circle cx="-460" cy="40" r="3"/><circle cx="-330" cy="130" r="5"/><circle cx="-325" cy="128" r="3"/><circle cx="-440" cy="170" r="4"/><circle cx="-600" cy="45" r="3"/><circle cx="-400" cy="45" r="4"/><circle cx="-620" cy="135" r="5"/><circle cx="-520" cy="140" r="3"/></g><g fill="#8c7a59" stroke="#66573c" opacity=".9"><path d="M354.722 330.072q15-10 30 0-15 10-30 0ZM289.722 240.072q10-10 20 0-10 10-20 0ZM564.722 450.072q15-10 30 0-15 10-30 0ZM444.722 262.072l6-4 4 6-6 5zM454.722 267.072l4-2 3 4-5 3z"/></g></g><path d="M-550 59h22v62h-22z" style="fill:#ded2a8;stroke:none" transform="translate(899.722 300.072)"/><g fill="#c2b280" stroke="#8a7b50"><path d="M347.722 359.072h4v62h-4z"/><path fill="none" d="M347.722 369.072h4m-4 10h4m-4 10h4m-4 10h4m-4 10h4"/><path d="M369.722 359.072h4v62h-4z"/><path fill="none" d="M369.722 369.072h4m-4 10h4m-4 10h4m-4 10h4m-4 10h4"/></g><path stroke="#b8a873" d="M351.722 365.072h18m-18 10h18m-18 10h18m-18 10h18m-18 10h18m-18 10h18" opacity=".6"/><path d="M-430 59h22v62h-22z" style="fill:#ded2a8;stroke:none" transform="translate(899.722 300.072)"/><g fill="#c2b280" stroke="#8a7b50"><path d="M467.722 359.072h4v62h-4z"/><path fill="none" d="M467.722 369.072h4m-4 10h4m-4 10h4m-4 10h4m-4 10h4"/><path d="M489.722 359.072h4v62h-4z"/><path fill="none" d="M489.722 369.072h4m-4 10h4m-4 10h4m-4 10h4m-4 10h4"/></g><path stroke="#b8a873" d="M471.722 365.072h18m-18 10h18m-18 10h18m-18 10h18m-18 10h18m-18 10h18" opacity=".6"/><g pointer-events="none"><path fill="url(#j)" d="M-552 58h26v3h-26z" transform="translate(899.722 300.072)"/><path fill="url(#j)" d="M-552 119h26v3h-26z" transform="translate(899.722 300.072)"/><path fill="url(#j)" d="M-432 58h26v3h-26z" transform="translate(899.722 300.072)"/><path fill="url(#j)" d="M-432 119h26v3h-26z" transform="translate(899.722 300.072)"/></g><path d="M119.838 60.162h-596.767m596.767 59.676h-596.767m596.767 59.677h-596.767m596.767 59.677h-596.767m596.767 59.676h-596.767m596.767 59.677h-596.767m596.767 59.677h-596.767m596.767 59.677h-596.767m596.767 59.676h-596.767m596.767 59.677h-596.767m596.767 59.677h-596.767 0M119.838 60.162v656.443M60.162 60.162v656.443M.485 60.162v656.443M-59.192 60.162v656.443m-59.676-656.443v656.443m-59.677-656.443v656.443m-59.677-656.443v656.443m-59.677-656.443v656.443m-59.676-656.443v656.443m-59.677-656.443v656.443m-59.677-656.443v656.443" style="fill:none;fill-opacity:1;fill-rule:evenodd;stroke:#8A6A44;stroke-width:1.5;stroke-linecap:round;stroke-dasharray:none;stroke-dashoffset:6.05737" transform="matrix(1.00487 0 0 1.00492 539.57 -.19)"/></svg>