<svg xmlns="http://www.w3.org/2000/svg" viewBox="0 0 100 100">
  <defs>
    <filter id="shadow" x="-20%" y="-20%" width="140%" height="140%">
      <feDropShadow dx="0" dy="2" stdDeviation="2" flood-color="rgba(0,0,0,0.5)" />
    </filter>
  </defs>
  <ellipse cx="50" cy="85" rx="42" ry="8" fill="#1a1a1a" opacity="0.6" />
  <g filter="url(#shadow)">
    <!-- Base Platform -->
    <rect x="20" y="60" width="60" height="15" fill="#5b6e50" stroke="#3d4a35" stroke-width="1.5" rx="3" />
    <rect x="25" y="75" width="50" height="5" fill="#3d4a35" />
    <circle cx="30" cy="75" r="4" fill="#2c2a26" />
    <circle cx="50" cy="75" r="4" fill="#2c2a26" />
    <circle cx="70" cy="75" r="4" fill="#2c2a26" />
    <!-- Turret / Rotation gear -->
    <rect x="40" y="50" width="20" height="10" fill="#6c8060" />
    <!-- Iron Dome style Launcher Array -->
    <g transform="translate(50, 45) rotate(-35)">
      <!-- Launcher Box -->
      <rect x="-15" y="-15" width="40" height="25" fill="#5b6e50" stroke="#3d4a35" stroke-width="1.5" rx="2" />
      <rect x="-10" y="-10" width="5" height="4" fill="#6c8060" />
      <rect x="-10" y="-2" width="5" height="4" fill="#6c8060" />
      <rect x="-10" y="6" width="5" height="4" fill="#6c8060" />
      <rect x="-2" y="-10" width="5" height="4" fill="#6c8060" />
      <rect x="-2" y="-2" width="5" height="4" fill="#6c8060" />
      <rect x="-2" y="6" width="5" height="4" fill="#6c8060" />
      <!-- Missile tips sticking out -->
      <path d="M 25 -10 L 30 -8 L 25 -6 Z" fill="#4a5a40" />
      <path d="M 25 -2 L 30 0 L 25 2 Z" fill="#4a5a40" />
    </g>
    <!-- Radar mast -->
    <rect x="25" y="30" width="2" height="30" fill="#2c2a26" />
    <rect x="22" y="25" width="8" height="5" fill="#4a5a40" />
  </g>
</svg>