<svg xmlns="http://www.w3.org/2000/svg" viewBox="0 0 100 100">
  <defs>
    <filter id="shadow" x="-20%" y="-20%" width="140%" height="140%">
      <feDropShadow dx="0" dy="2" stdDeviation="2" flood-color="rgba(0,0,0,0.5)" />
    </filter>
  </defs>
  <ellipse cx="50" cy="90" rx="35" ry="5" fill="#1a1a1a" opacity="0.6" />
  <g filter="url(#shadow)">
    <!-- Body -->
    <path d="M 35 90 C 35 60, 40 55, 50 55 C 60 55, 65 60, 65 90 Z" fill="#7dd3fc" stroke="#0369a1" stroke-width="1.5" />
    <!-- Suspenders -->
    <path d="M 42 55 L 42 90 M 58 55 L 58 90" stroke="#0f172a" stroke-width="3" />
    <!-- Head -->
    <path d="M 38 45 C 38 25, 62 25, 62 45 C 62 55, 58 58, 50 58 C 42 58, 38 55, 38 45 Z" fill="#fcd34d" stroke="#2c2a26" stroke-width="1.5" />
    <!-- Patrol Cap -->
    <path d="M 36 35 C 36 25, 64 25, 64 35 Z" fill="#38bdf8" stroke="#0f172a" stroke-width="1.5" />
    <path d="M 34 35 Q 50 38 72 35" fill="none" stroke="#0f172a" stroke-width="2" />
    <path d="M 64 35 L 75 40" stroke="#38bdf8" stroke-width="3" />
    <!-- M16 Rifle Silhouette (Carry Handle, longer barrel) -->
    <g transform="translate(45, 65) rotate(-40)">
      <rect x="-10" y="0" width="45" height="4" fill="#2c2a26" rx="1" />
      <path d="M 8 4 L 10 15 L 13 15 L 11 4 Z" fill="#2c2a26" />
      <rect x="-2" y="4" width="4" height="8" fill="#2c2a26" rx="1" />
      <!-- Carry handle -->
      <path d="M 2 -4 L 12 -4 L 12 0 L 2 0 Z" fill="none" stroke="#2c2a26" stroke-width="2" />
      <!-- Triangle handguard -->
      <path d="M 15 0 L 28 0 L 28 5 L 15 4 Z" fill="#1a1a1a" />
      <rect x="28" y="1" width="15" height="2" fill="#2c2a26" />
    </g>
  </g>
</svg>