<svg xmlns="http://www.w3.org/2000/svg" viewBox="0 0 100 100">
  <defs>
    <filter id="shadow" x="-20%" y="-20%" width="140%" height="140%">
      <feDropShadow dx="0" dy="2" stdDeviation="2" flood-color="rgba(0,0,0,0.5)" />
    </filter>
  </defs>
  <ellipse cx="50" cy="85" rx="42" ry="8" fill="#1a1a1a" opacity="0.6" />
  <g filter="url(#shadow)">
    <!-- Tracks -->
    <rect x="15" y="65" width="70" height="15" rx="5" fill="#2c2a26" stroke="#1a1a1a" stroke-width="2" />
    <circle cx="20" cy="72.5" r="4" fill="#4a4a4a" />
    <circle cx="32" cy="72.5" r="4" fill="#4a4a4a" />
    <circle cx="44" cy="72.5" r="4" fill="#4a4a4a" />
    <circle cx="56" cy="72.5" r="4" fill="#4a4a4a" />
    <circle cx="68" cy="72.5" r="4" fill="#4a4a4a" />
    <circle cx="80" cy="72.5" r="4" fill="#4a4a4a" />
    <!-- Hull (Sloped rear/front Merkava vibe) -->
    <path d="M 12 55 L 85 55 L 88 65 L 10 65 Z" fill="#38bdf8" stroke="#0f172a" stroke-width="1.5" />
    <path d="M 20 45 L 75 45 L 85 55 L 12 55 Z" fill="#7dd3fc" stroke="#0f172a" stroke-width="1.5" />
    <!-- Turret (Sloped angular) -->
    <path d="M 30 45 L 70 45 L 75 35 L 40 30 Z" fill="#38bdf8" stroke="#0f172a" stroke-width="1.5" />
    <path d="M 35 30 L 70 30 L 75 35 L 40 30 Z" fill="#7dd3fc" />
    <!-- Barrel -->
    <rect x="70" y="36" width="28" height="4" fill="#0369a1" stroke="#2c2a26" stroke-width="1" />
    <rect x="85" y="35" width="6" height="6" fill="#0f172a" /> <!-- Fume extractor -->
    <!-- Hatch/MG -->
    <rect x="35" y="26" width="10" height="4" fill="#0369a1" />
    <rect x="45" y="24" width="15" height="2" fill="#2c2a26" />
    <!-- Antenna -->
    <rect x="30" y="10" width="1" height="20" fill="#2c2a26" />
  </g>
</svg>