<?xml version="1.0" encoding="UTF-8"?>
<svg id="Layer_1" data-name="Layer 1" xmlns="http://www.w3.org/2000/svg" xmlns:xlink="http://www.w3.org/1999/xlink" viewBox="0 0 219.21 205.9">
  <defs>
    <style>
      .cls-1 {
        fill: none;
      }

      .cls-2 {
        clip-path: url(#clippath);
      }

      .cls-3 {
        fill: #fff;
      }

      .cls-4 {
        fill: #24b4f5;
      }

      .cls-5 {
        fill: #ffebd2;
        stroke: #24b4f5;
        stroke-miterlimit: 10;
        stroke-width: 2px;
      }
    </style>
    <clipPath id="clippath">
      <circle class="cls-1" cx="109.75" cy="103.18" r="65.22"/>
    </clipPath>
  </defs>
  <circle class="cls-5" cx="109.79" cy="102.95" r="85.55"/>
  <circle class="cls-4" cx="109.79" cy="102.95" r="65.22"/>
  <g class="cls-2">
    <g>
      <g>
        <path class="cls-3" d="M149.74,108.59s.08,.1,.13,.16c2.03,2.44,14.08,18.56,14.72,19.2h8.22c-2.16-3.43-11.19-19.84-11.04-22.23,.14-2.38-12.03,2.87-12.03,2.87Z"/>
        <path class="cls-3" d="M149.74,97.31s.08-.1,.13-.16c2.03-2.44,14.08-18.56,14.72-19.2h8.22c-2.16,3.43-11.19,19.84-11.04,22.22,.14,2.38-12.03-2.87-12.03-2.87Z"/>
      </g>
      <g>
        <path class="cls-3" d="M60.4,95.54c-.27,0-.53,.05-.79,.12-8.54,.61-15.03,3.64-15.03,7.3s6.49,6.69,15.03,7.3c.26,.07,.52,.11,.79,.11h91.46s.04,0,.06,0c.02,0,.05,0,.08,0,3.26,0,20.7-3.32,20.7-7.41s-17.45-7.41-20.7-7.41c-.03,0-.05,0-.08,0-.02,0-.04,0-.06,0H60.4Z"/>
        <g>
          <g>
            <path class="cls-3" d="M85.72,107.9c1.27,2.07,10.05,16.87,12.51,20.15,1.44,1.69,23.76,31.91,24.78,32.7h5.92c-1.36-4.25-15.48-39.97-16.32-42.01,0-2.66-.09-10.55-.09-11.43s-26.81,.58-26.81,.58Z"/>
            <path class="cls-3" d="M108.64,140.79c5.36,0,9.7,1.43,9.7,3.2s-4.35,3.2-9.7,3.2-9.7-1.44-9.7-3.2,4.34-3.2,9.7-3.2Z"/>
            <path class="cls-3" d="M96.22,123.36c5.36,0,9.7,1.43,9.7,3.2s-4.35,3.2-9.7,3.2-9.7-1.44-9.7-3.2,4.34-3.2,9.7-3.2Z"/>
          </g>
          <g>
            <path class="cls-3" d="M85.72,98c1.27-2.07,10.05-16.87,12.51-20.15,1.44-1.69,23.76-31.91,24.78-32.7h5.92c-1.36,4.25-15.48,39.97-16.32,42.01,0,2.66-.09,10.55-.09,11.43s-26.81-.59-26.81-.59Z"/>
            <path class="cls-3" d="M108.64,65.12c5.36,0,9.7-1.44,9.7-3.2s-4.35-3.2-9.7-3.2-9.7,1.43-9.7,3.2,4.34,3.2,9.7,3.2Z"/>
            <path class="cls-3" d="M96.22,82.54c5.36,0,9.7-1.44,9.7-3.21s-4.35-3.2-9.7-3.2-9.7,1.43-9.7,3.2,4.34,3.21,9.7,3.21Z"/>
          </g>
        </g>
      </g>
    </g>
  </g>
</svg>