<?xml version="1.0" encoding="UTF-8"?>
<svg id="Layer_1" data-name="Layer 1" xmlns="http://www.w3.org/2000/svg" viewBox="0 0 219.21 205.9">
  <defs>
    <style>
      .cls-1, .cls-2 {
        fill: none;
      }

      .cls-3 {
        fill: #fffafe;
      }

      .cls-4 {
        fill: #24b4f5;
      }

      .cls-5 {
        fill: #ffebd2;
        stroke-width: 2px;
      }

      .cls-5, .cls-2 {
        stroke: #24b4f5;
        stroke-miterlimit: 10;
      }

      .cls-2 {
        stroke-width: .98px;
      }
    </style>
  </defs>
  <circle class="cls-5" cx="109.07" cy="102.95" r="85.55"/>
  <circle class="cls-4" cx="109.07" cy="102.95" r="65.22"/>
  <circle class="cls-1" cx="109.02" cy="103.18" r="65.22"/>
  <g>
    <path class="cls-3" d="M135.56,93.46s-.06,5.84-1.44,10.27-4.71,11.36-9.7,11.64c0,0-3.74,.55-4.3,0s.69,4.99,3.6,7.48c2.91,2.49,23.7,8.04,25.09,14.97s-7.21,10.26-13.03,11.09c-5.82,.83-7.48,1.94-8.59,4.43s-.53,6.08-7.2,5.95-13.87-13.43-19.41-15.37c-5.54-1.94-32.98-1.66-32.98-1.66v-6.38h-4.16v-9.15h4.16v-49.34h6.65v3.33h6.65v4.16h-6.93l3.05,42.13h3.88s9.15-7.76,9.15-12.2v-7.76s-4.16-2.22-4.16-8.04v-29.66s1.11-20.23,30.77-20.23c0,0,23.56,0,23.56,22.73s-1.39,21.07-3.46,22.04l-1.19-.43Z"/>
    <path class="cls-2" d="M106.78,107.39s4.82,6.1,10.18,7.58"/>
    <path class="cls-2" d="M81.82,122.19s21.3,11.41,46.38,0"/>
    <path class="cls-2" d="M84.96,103.25l8.7,7.93,6.13-7.48-.28-10.81c-3.33-.28-6.93-6.65-5.54-11.64s7.48,0,7.48,0c7.21-1.94,13.58-13.86,13.58-13.86,4.99,1.66,19.18,0,19.18,0,0,0,2.77,18.01,1.48,30.95"/>
  </g>
</svg>