<?xml version="1.0" encoding="UTF-8"?>
<svg id="Layer_1" data-name="Layer 1" xmlns="http://www.w3.org/2000/svg" xmlns:xlink="http://www.w3.org/1999/xlink" viewBox="0 0 219.21 205.9">
  <defs>
    <style>
      .cls-1 {
        fill: none;
      }

      .cls-2 {
        clip-path: url(#clippath);
      }

      .cls-3 {
        fill: #fff;
      }

      .cls-4 {
        fill: #24b4f5;
      }

      .cls-5 {
        fill: #ffebd2;
        stroke: #24b4f5;
        stroke-miterlimit: 10;
        stroke-width: 2px;
      }
    </style>
    <clipPath id="clippath">
      <circle class="cls-1" cx="109.61" cy="103.18" r="65.22"/>
    </clipPath>
  </defs>
  <g>
    <circle class="cls-5" cx="109.61" cy="103.18" r="85.55"/>
    <circle class="cls-4" cx="109.61" cy="103.18" r="65.22"/>
  </g>
  <g class="cls-2">
    <path class="cls-3" d="M157.53,130v-3.39l-13.55-4.24v7.34h-18.92v-3.95h-3.39v-6.21h3.39v-11.58h-11.29l-10.73-22.31h-7.62l-20.89-49.41-3.11,13.55,23.44,58.45h-15.11v13.27h11.72l4.38,4.38v6.07h-30.35v6.78h5.65v13.84h22.87l5.36-9.6h24.56l2.4,9.6h39.39l13.69-18.07-21.88-4.52Zm-75.25,19.54c-4.11,0-7.44-3.33-7.44-7.44s3.33-7.44,7.44-7.44,7.44,3.33,7.44,7.44-3.33,7.44-7.44,7.44Zm17.36-31.4h15.95v6.21h-15.95v-6.21Zm22.78,16.52h-21.79v-3.95h21.79v3.95Zm15.2,14.89c-4.11,0-7.44-3.33-7.44-7.44s3.33-7.44,7.44-7.44,7.44,3.33,7.44,7.44-3.33,7.44-7.44,7.44Z"/>
    <circle class="cls-3" cx="82.32" cy="142.14" r="6.18"/>
    <circle class="cls-3" cx="137.57" cy="142.14" r="6.18"/>
  </g>
</svg>