<?xml version="1.0" encoding="UTF-8" standalone="no"?>
<!-- Created with Inkscape (http://www.inkscape.org/) -->

<svg
   width="720mm"
   height="780mm"
   viewBox="0 0 720 780"
   version="1.1"
   id="svg1"
   xmlns="http://www.w3.org/2000/svg"
   xmlns:svg="http://www.w3.org/2000/svg">
  <defs
     id="defs1">
    <!-- Battleground Decorations -->
    <!-- Crater Gradient -->
    <radialGradient id="craterGradient" cx="50%" cy="50%" r="50%" fx="50%" fy="50%">
      <stop offset="0%" style="stop-color:#2a302a;stop-opacity:0.9" />
      <stop offset="80%" style="stop-color:#3e473e;stop-opacity:0.4" />
      <stop offset="100%" style="stop-color:#6b7a6b;stop-opacity:0" />
    </radialGradient>
    
    <!-- Filters -->
    <filter id="blurFilter">
        <feGaussianBlur in="SourceGraphic" stdDeviation="2" />
    </filter>
    
    <!-- Noise Filter for Gritty Texture -->
    <filter id="noiseFilter">
        <feTurbulence type="fractalNoise" baseFrequency="0.6" numOctaves="3" stitchTiles="stitch" />
        <feColorMatrix type="matrix" values="1 0 0 0 0  0 1 0 0 0  0 0 1 0 0  0 0 0 0.1 0"/>
        <feComposite operator="in" in2="SourceGraphic" result="compositeNoise"/>
        <feBlend mode="multiply" in="compositeNoise" in2="SourceGraphic" />
    </filter>
    
    <!-- Patterns -->
    <pattern id="trenchPattern" width="20" height="20" patternUnits="userSpaceOnUse">
        <path d="M 0 10 L 10 0 L 20 10" fill="none" stroke="#2a302a" stroke-width="1" opacity="0.4"/>
    </pattern>
    <pattern id="techGrid" width="40" height="40" patternUnits="userSpaceOnUse">
        <rect width="40" height="40" fill="none"/>
        <path d="M 40 0 L 0 0 0 40" fill="none" stroke="#a3c2e0" stroke-width="0.5" opacity="0.1"/>
    </pattern>

    <!-- Reticle -->
    <g id="reticle">
      <circle cx="0" cy="0" r="15" fill="none" stroke="#a3c2e0" stroke-width="1" stroke-opacity="0.8" />
      <line x1="-20" y1="0" x2="20" y2="0" stroke="#a3c2e0" stroke-width="1" stroke-opacity="0.8" />
      <line x1="0" y1="-20" x2="0" y2="20" stroke="#a3c2e0" stroke-width="1" stroke-opacity="0.8" />
    </g>
  </defs>
  
  <rect
     style="opacity:1;fill:none;fill-opacity:0.995866;fill-rule:evenodd;stroke:#000000;stroke-width:0;stroke-linecap:butt;stroke-dasharray:none;stroke-dashoffset:0;paint-order:markers fill stroke"
     id="rect7"
     width="720"
     height="780"
     x="-2.5423467e-05"
     y="-1.9567324e-07" />
     
  <g
     id="layer4"
     style="stroke-width:0.5;stroke-dasharray:none"
     transform="translate(899.72226,300.07242)">
     
    <!-- Land Mass with Noise Filter -->
    <path
       style="display:inline;fill:#6b7a6b;fill-opacity:1;fill-rule:evenodd;stroke:#5c7a99;stroke-width:1.5;stroke-linecap:round;stroke-dasharray:none;stroke-dashoffset:6.05737"
       id="rect3"
       width="599.42963"
       height="659.42963"
       x="-887.83569"
       y="-154.24654"
       d="m -887.83569,-154.24654 h 599.42962 v 659.42963 h -599.42962 z"
       transform="matrix(1.0167862,0,0,1.0152626,58.347858,-88.397668)" />

    <!-- Water with Tech Grid -->
    <path
       style="fill:#3a5a78;fill-opacity:1;fill-rule:evenodd;stroke:#5c7a99;stroke-width:1.5;stroke-linecap:round;stroke-dasharray:none;stroke-dashoffset:6.05737"
       id="path6"
       width="599.42963"
       height="659.42963"
       x="-887.83569"
       y="-154.24654"
       transform="translate(48.629454,-85.498419)"
       d="m -887.83569,-154.24654 h 599.42962 v 659.42963 h -599.42962 z" />
    
    <!-- Water Overlay for Tech Feel -->
     <rect x="-840" y="-240" width="120" height="720" fill="url(#techGrid)" opacity="0.3" pointer-events="none"/>
     <rect x="-840" y="60" width="660" height="120" fill="url(#techGrid)" opacity="0.3" pointer-events="none" transform="rotate(90 -510 120)"/>
  </g>
  
  <g
     id="layer2"
     style="stroke-width:0.5;stroke-dasharray:none"
     transform="translate(899.72226,300.07242)">
    <!-- Base Areas -->
    <rect
       style="fill:#9aa69c;fill-opacity:1;fill-rule:evenodd;stroke:#5c7a99;stroke-width:1.5;stroke-linecap:butt;stroke-dasharray:none;stroke-dashoffset:6.05737;paint-order:markers fill stroke"
       id="rect2"
       width="479.41556"
       height="299.41556"
       x="-719.18127"
       y="120.12109" />
    <rect
       style="fill:#9aa69c;fill-opacity:1;fill-rule:evenodd;stroke:#5c7a99;stroke-width:1.5;stroke-linecap:round;stroke-dasharray:none;stroke-dashoffset:6.05737"
       id="rect4"
       width="479.41556"
       height="299.41556"
       x="-719.37628"
       y="-239.54292" />
  </g>
  
  <!-- HEAVY CONTEXT LAYER -->
  <g id="battleground-context" transform="translate(899.72226,300.07242)">
      
      <!-- Scorched Earth -->
      <path d="M -600 200 Q -550 250 -500 200 T -400 220" stroke="none" fill="#2a302a" opacity="0.25" filter="url(#blurFilter)"/>
      <path d="M -700 -100 Q -650 -50 -600 -100 T -500 -80" stroke="none" fill="#2a302a" opacity="0.25" filter="url(#blurFilter)"/>
      <circle cx="-550" cy="50" r="70" fill="#2a302a" opacity="0.15" filter="url(#blurFilter)" />
      
      <!-- Trenches -->
      <path d="M -800 -150 L -780 -140 L -760 -160 L -740 -140 L -720 -150" stroke="#2a302a" stroke-width="2" fill="none" opacity="0.6"/>
      <path d="M -300 300 L -320 310 L -340 290 L -360 310 L -380 300" stroke="#2a302a" stroke-width="2" fill="none" opacity="0.6"/>
      
      <!-- Craters -->
      <circle cx="-600" cy="100" r="15" fill="url(#craterGradient)" opacity="0.8" />
      <circle cx="-580" cy="120" r="10" fill="url(#craterGradient)" opacity="0.7" />
      <circle cx="-400" cy="-50" r="25" fill="url(#craterGradient)" opacity="0.6" />
      <circle cx="-750" cy="-100" r="12" fill="url(#craterGradient)" opacity="0.8" />
      <circle cx="-680" cy="-80" r="8" fill="url(#craterGradient)" opacity="0.7" />
      <circle cx="-500" cy="250" r="18" fill="url(#craterGradient)" opacity="0.7" />
      
      <!-- Tactical Overlays -->
      <rect x="-800" y="-150" width="100" height="100" fill="url(#trenchPattern)" opacity="0.3" />
      
      <!-- Reticles -->
      <use href="#reticle" x="-590" y="175" />
      <use href="#reticle" x="-479" y="-239" />
      <use href="#reticle" x="-479" y="120" /> 
      <use href="#reticle" x="-700" y="0" />
      <use href="#reticle" x="-350" y="-100" />

      <!-- Text/Values -->
      <path d="M -710 130 h 50 v 5 h -50 z" fill="#a3c2e0" opacity="0.5" />
      <path d="M -710 -229 h 50 v 5 h -50 z" fill="#a3c2e0" opacity="0.5" />
      <text x="-708" y="134" font-family="monospace" font-size="4" fill="#003300">SEC-A</text>
      
      <!-- Compass Rose -->
      <g transform="translate(-800, -200)">
        <!-- Outer Circle -->
        <circle r="30" fill="none" stroke="#bdcfe0" stroke-width="1" opacity="0.4" />
        <circle r="25" fill="none" stroke="#bdcfe0" stroke-width="0.5" stroke-dasharray="2 2" opacity="0.3" />
        
        <!-- Crosshairs -->
        <line x1="0" y1="-35" x2="0" y2="35" stroke="#bdcfe0" stroke-width="0.5" opacity="0.3" />
        <line x1="-35" y1="0" x2="35" y2="0" stroke="#bdcfe0" stroke-width="0.5" opacity="0.3" />

        <!-- North Arrow -->
        <path d="M 0 -25 L 5 0 L 0 5 L -5 0 Z" fill="#bdcfe0" opacity="0.8" />
        <path d="M 0 -25 L 0 5" stroke="#2a302a" stroke-width="0.5" opacity="0.5" />
        
        <!-- Letters -->
        <text x="-3" y="-32" font-family="monospace" font-size="8" fill="#bdcfe0" font-weight="bold" opacity="0.8">N</text>
        <text x="-3" y="40" font-family="monospace" font-size="8" fill="#bdcfe0" opacity="0.5">S</text>
        <text x="32" y="3" font-family="monospace" font-size="8" fill="#bdcfe0" opacity="0.5">E</text>
        <text x="-40" y="3" font-family="monospace" font-size="8" fill="#bdcfe0" opacity="0.5">W</text>
      </g>

      <!-- Hazard Borders -->
      <path d="M -719 120 L -239 120" stroke="#a3c2e0" stroke-width="2" stroke-dasharray="10,10" opacity="0.5" />
      <path d="M -719 -239 L -239 -239" stroke="#a3c2e0" stroke-width="2" stroke-dasharray="10,10" opacity="0.5" />
  </g>

  <g
     id="layer3"
     transform="translate(899.72226,300.07242)">
    <!-- Special Zones (Dashed) -->
    <rect
       style="opacity:1;fill:none;fill-opacity:1;fill-rule:evenodd;stroke:#bdcfe0;stroke-width:1;stroke-linecap:round;stroke-dasharray:2.95799, 2.95799;stroke-dashoffset:0"
       id="rect5"
       width="4.7963333"
       height="55.254379"
       x="-541.6908"
       y="62.215183" />
    <rect
       style="opacity:1;fill:none;fill-opacity:1;fill-rule:evenodd;stroke:#bdcfe0;stroke-width:1;stroke-linecap:round;stroke-dasharray:2.95799, 2.95799;stroke-dashoffset:0"
       id="rect6"
       width="4.7963333"
       height="55.254379"
       x="-422.19763"
       y="62.096256" />
  </g>
  <g
     id="layer5"
     transform="translate(899.72226,300.07242)">
    <g
       id="layer1"
       transform="translate(48.629454,-86.027586)">
      <!-- Main Grid Lines (Visible on top) -->
      <path
         style="fill:none;fill-opacity:1;fill-rule:evenodd;stroke:#bdcfe0;stroke-width:0.8;stroke-linecap:round;stroke-dasharray:none;stroke-dashoffset:6.05737"
         id="rect1"
         width="59.676693"
         height="59.676693"
         x="60.161652"
         y="60.161652"
         transform="matrix(1.0048733,0,0,1.0049239,-408.78257,-214.23492)"
         d="m 119.83834,60.161652 h -596.76693 m 596.76693,59.676688 h -596.76693 m 596.76693,59.6767 h -596.76693 m 596.76693,59.67669 h -596.76693 m 596.76693,59.67669 h -596.76693 m 596.76693,59.6767 h -596.76693 m 596.76693,59.67669 h -596.76693 m 596.76693,59.67669 h -596.76693 m 596.76693,59.67669 h -596.76693 m 596.76693,59.67669 h -596.76693 m 596.76693,59.67669 h -596.76693 H -476.92859 M 119.83834,60.161652 V 716.60527 M 60.161652,60.161652 V 716.60527 M 0.48495865,60.161652 V 716.60527 M -59.191734,60.161652 V 716.60527 M -118.86843,60.161652 V 716.60527 M -178.54512,60.161652 V 716.60527 M -238.22181,60.161652 V 716.60527 M -297.89851,60.161652 V 716.60527 M -357.5752,60.161652 V 716.60527 M -417.25189,60.161652 V 716.60527 M -476.92859,60.161652 V 716.60527" />
    </g>
  </g>
</svg>
