<?xml version="1.0" encoding="UTF-8"?>
<svg id="Layer_1" data-name="Layer 1" xmlns="http://www.w3.org/2000/svg" xmlns:xlink="http://www.w3.org/1999/xlink" viewBox="0 0 219.21 205.9">
  <defs>
    <style>
      .cls-1, .cls-2 {
        fill: none;
      }

      .cls-3 {
        clip-path: url(#clippath);
      }

      .cls-4 {
        fill: #ec2024;
      }

      .cls-5 {
        fill: #fff;
      }

      .cls-6 {
        fill: #ffebd2;
        stroke: #c42126;
      }

      .cls-6, .cls-2 {
        stroke-miterlimit: 10;
        stroke-width: 2px;
      }

      .cls-2 {
        stroke: #ec2024;
      }
    </style>
    <clipPath id="clippath">
      <circle class="cls-1" cx="109.61" cy="102.95" r="65.22"/>
    </clipPath>
  </defs>
  <circle class="cls-6" cx="109.61" cy="102.95" r="85.55"/>
  <circle class="cls-4" cx="109.61" cy="102.95" r="65.22"/>
  <g class="cls-3">
    <path class="cls-5" d="M176.85,98.67s-12.14-1.1-15.3,9.81h-13.89l-6.51-9.04h-9.58l-53.24-57.55-14.94,9.67,42.52,46.73s-10.72,11.87-10.34,19.15l-19.72,4.93c-2.25-5.22-7.44-8.88-13.48-8.88-8.11,0-14.68,6.57-14.68,14.68s6.57,14.68,14.68,14.68c6.64,0,12.24-4.41,14.06-10.46h49.74c1.81,6.05,7.42,10.46,14.06,10.46,8.11,0,14.68-6.57,14.68-14.68,0-2.13-.46-4.14-1.28-5.97l.94-2.08s7.66-2.68,12.26,1.92c4.6,4.6,12.64,.38,12.64,.38l-2.61-23.75Zm-114.19,38.38c-4.91,0-8.89-3.98-8.89-8.89s3.98-8.89,8.89-8.89,8.89,3.98,8.89,8.89-3.98,8.89-8.89,8.89Zm77.56,0c-4.91,0-8.89-3.98-8.89-8.89s3.98-8.89,8.89-8.89,8.89,3.98,8.89,8.89-3.98,8.89-8.89,8.89Z"/>
    <line class="cls-2" x1="64.33" y1="38.68" x2="116.9" y2="96.08"/>
    <path class="cls-2" d="M82.85,113.31c2.74,2.08,29.83,14.08,70.16-7.47"/>
    <circle class="cls-4" cx="124.61" cy="105.06" r="3.01"/>
    <circle class="cls-5" cx="62.62" cy="128.23" r="6.68"/>
    <circle class="cls-5" cx="140.26" cy="128.23" r="6.68"/>
  </g>
</svg>