<?xml version="1.0" encoding="UTF-8"?>
<svg id="Layer_1" data-name="Layer 1" xmlns="http://www.w3.org/2000/svg" xmlns:xlink="http://www.w3.org/1999/xlink" viewBox="0 0 219.21 205.9">
  <defs>
    <style>
      .cls-1 {
        fill: none;
      }

      .cls-2 {
        clip-path: url(#clippath);
      }

      .cls-3 {
        fill: #ec2024;
      }

      .cls-4 {
        fill: #fff;
      }

      .cls-5 {
        fill: #ffebd2;
        stroke: #c42126;
        stroke-miterlimit: 10;
        stroke-width: 2px;
      }
    </style>
    <clipPath id="clippath">
      <circle class="cls-1" cx="109.79" cy="104.28" r="65.22"/>
    </clipPath>
  </defs>
  <circle class="cls-5" cx="109.61" cy="104.28" r="85.55"/>
  <circle class="cls-3" cx="109.61" cy="104.28" r="65.22"/>
  <path class="cls-4" d="M99.96,40.7c-8.94,3.33-20.71,10.47-18.87,24.66,.27,2.11,2.04,3.72,4.17,3.72h48.85c2.27,0,4.13-1.8,4.2-4.07,.17-6.04-2.14-17.41-19.95-24.22-5.93-2.27-12.45-2.3-18.4-.08Z"/>
  <g class="cls-2">
    <path class="cls-4" d="M34.15,112.86c0,.33,.16,.62,.4,.8v.18c0,.57,.46,1.03,1.04,1.03h14.49c.56,0,1.02-.45,1.03-1.01h28.09c.1,1.91,1.68,3.43,3.61,3.43h1.02v17.75c0,.57,.46,1.04,1.04,1.04h3.59c.57,0,1.04-.46,1.04-1.04v-17.12s-4.73-.64-4.73-.64h42.77s-11.5,.68-11.5,.68c-.87,16.69-9.57,23.76-9.57,23.76,0,0,3.03,2.22,9.9,7.27,7.56-9.33,10.25-20.2,11.04-27.91v.37c0,1.71,1.39,3.11,3.11,3.11h6.99c1.71,0,3.11-1.39,3.11-3.11v-.14c1.02,.4,3.24,5.45,5.26,10.3,2.02,4.85-1.01,6.26,2.02,6.06,3.03-.2,8.69-3.43,8.69-3.43,0,0-4.04-5.86-6.06-9.29-1.28-2.18-.52-4.39-.52-4.39l-7.37-.68c1.51,.02,11.97,.02,12.95,.02,5.06,0,24.44,9.29,33.1,13.15,.52,.23,1.03-.46,1.03-1.03v-16.74c0-.57-.46-1.03-1.03-1.03h-30.69c-.17-1.55-1.49-2.76-3.09-2.76h-3.01c-.23-1.6-1.52-2.86-3.13-3.06-.26-.82-1.02-1.42-1.92-1.42h-.96v-1.21c0-.57-.46-1.03-1.03-1.03h-.25s0,.2,0,.2c0,.04-.04,.08-.08,.08h-.7s-.08-.04-.08-.08v-.2s-.74,0-.74,0v.2s-.04,.08-.08,.08h-.7s-.08-.04-.08-.08v-.2s-.74,0-.74,0v.2s-.04,.08-.08,.08h-.7s-.08-.04-.08-.08v-.2s-.74,0-.74,0v.2s-.04,.08-.08,.08h-.7s-.08-.04-.08-.08v-.2s-.74,0-.74,0v.2s-.04,.08-.08,.08h-.7s-.08-.04-.08-.08v-.2s-.74,0-.74,0v.2s-.04,.08-.08,.08h-.7s-.08-.04-.08-.08v-.2s-.74,0-.74,0v.2s-.04,.08-.08,.08h-.7s-.08-.04-.08-.08v-.2s-.74,0-.74,0v.2s-.04,.08-.08,.08h-.7s-.08-.04-.08-.08v-.2s-.74,0-.74,0v.2s-.04,.08-.08,.08h-.7s-.08-.04-.08-.08v-.2s-.74,0-.74,0v.2s-.04,.08-.08,.08h-.7s-.08-.04-.08-.08v-.2s-.79,0-.79,0v.2s-.04,.08-.08,.08h-.7s-.08-.04-.08-.08v-.2s-.74,0-.74,0v.2s-.04,.08-.08,.08h-.7s-.08-.04-.08-.08v-.2s-.74,0-.74,0v.2s-.04,.08-.08,.08h-.7s-.08-.04-.08-.08v-.2s-.74,0-.74,0v.2s-.04,.08-.08,.08h-.7s-.08-.04-.08-.08v-.2s-.74,0-.74,0v.2s-.04,.08-.08,.08h-.7s-.08-.04-.08-.08v-.2s-.74,0-.74,0v.2s-.04,.08-.08,.08h-.7s-.08-.04-.08-.08v-.2s-.74,0-.74,0v.2s-.04,.08-.08,.08h-.7s-.08-.04-.08-.08v-.2s-.74,0-.74,0v.2s-.04,.08-.08,.08h-.7s-.08-.04-.08-.08v-.2s-.74,0-.74,0v.2s-.04,.08-.08,.08h-.7s-.08-.04-.08-.08v-.2s-.74,0-.74,0v.2s-.04,.08-.08,.08h-.7s-.08-.04-.08-.08v-.2s-11.98,0-11.98,0c-.25,0-.48,.1-.66,.25,0,.08,.01,.15,.01,.23v2.85c0,1.71-1.39,3.11-3.11,3.11h-15.93s15.93-.52,15.93-.52c1.43,0,2.59-1.16,2.59-2.59v-1.91s-18.95,0-18.95,0c-.16-.36-.52-.61-.94-.61h-.3s0,.08,0,.08c0,.09-.07,.16-.16,.16h-.5c-.09,0-.16-.07-.16-.16v-.08s-.73,0-.73,0v.08c0,.09-.07,.16-.16,.16h-.5c-.09,0-.16-.07-.16-.16v-.08s-.73,0-.73,0v.08c0,.09-.07,.16-.16,.16h-.5c-.09,0-.16-.07-.16-.16v-.08s-.73,0-.73,0v.08c0,.09-.07,.16-.16,.16h-.5c-.09,0-.16-.07-.16-.16v-.08s-.73,0-.73,0v.08c0,.09-.07,.16-.16,.16h-.5c-.09,0-.16-.07-.16-.16v-.08s-.73,0-.73,0v.08c0,.09-.07,.16-.16,.16h-.5c-.09,0-.16-.07-.16-.16v-.08s-.73,0-.73,0v.08c0,.09-.07,.16-.16,.16h-.5c-.09,0-.16-.07-.16-.16v-.08s-.73,0-.73,0v.08c0,.09-.07,.16-.16,.16h-.5c-.09,0-.16-.07-.16-.16v-.08s-.19,0-.19,0c-.57,0-1.04,.46-1.04,1.04v2.98c0,.57,.46,1.04,1.04,1.04h11.08v.58c0,.1,.02,.19,.04,.28-.02,.11-.03,.23-.03,.35h-24.67s-.3-6.27-.3-6.27c0-.13-.15-.29-.33-.34l-2.58-.83c-.22-.07-.41-.01-.42,.14l-.5,5.96c-.1-.03-.21-.06-.33-.06h-14.49c-.57,0-1.04,.46-1.04,1.04v.59c-.24,.18-.4,.47-.4,.8Zm137.55,3.96c0,.17-.14,.3-.3,.3h-5.78c-.17,0-.3-.14-.3-.3,0-.17,.14-.3,.3-.3h5.78c.17,0,.3,.14,.3,.3Zm0,1.47c0,.17-.14,.3-.3,.3h-5.78c-.17,0-.3-.14-.3-.3,0-.17,.14-.3,.3-.3h5.78c.17,0,.3,.14,.3,.3Zm7.85-1.47c0,.17-.14,.3-.3,.3h-5.78c-.17,0-.3-.14-.3-.3,0-.17,.14-.3,.3-.3h5.78c.17,0,.3,.14,.3,.3Zm0,1.47c0,.17-.14,.3-.3,.3h-5.78c-.17,0-.3-.14-.3-.3,0-.17,.14-.3,.3-.3h5.78c.17,0,.3,.14,.3,.3Zm7.85-1.47c0,.17-.14,.3-.3,.3h-5.78c-.17,0-.3-.14-.3-.3,0-.17,.14-.3,.3-.3h5.78c.17,0,.3,.14,.3,.3Zm-.3,1.77h-5.78c-.17,0-.3-.14-.3-.3,0-.17,.14-.3,.3-.3h5.78c.17,0,.3,.14,.3,.3,0,.17-.14,.3-.3,.3Zm-22.95,1.55h17.35c4.79,0,5.4,.43,5.4,5.3v3.59c0,.86-.64,1.28-1.43,.94l-21.44-9.22c-.79-.34-.73-.61,.13-.61Zm-6.67-1.85c0-.17,.14-.3,.3-.3h5.78c.17,0,.3,.14,.3,.3,0,.17-.14,.3-.3,.3h-5.78c-.17,0-.3-.14-.3-.3Zm0-1.47c0-.17,.14-.3,.3-.3h5.78c.17,0,.3,.14,.3,.3,0,.17-.14,.3-.3,.3h-5.78c-.17,0-.3-.14-.3-.3Zm-38.81,3.08s-.25,13.96-8.6,22.32c-.23,.23-.64,.09-.82-.19-.17-.28-.04-.59,.19-.82,7.53-7.44,8.04-21.32,8.04-21.32,0-.33,.27-.59,.59-.59s.59,.27,.59,.59Zm12.59,.53c0-.59,.4-1.57,1.1-1.57l5.14,.05c.14,0,.28,0,.41-.01,0,.02,0,.03,0,.05,0,.9-.24,1.74-.67,2.47-.28,.48-.61,.86-.92,1.14,.09,.18,.17,.36,.25,.53,1.62-.37,2.93-1.54,3.51-3.07v1.47c0,1.43-1.16,2.59-2.59,2.59h-3.66c-1.43,0-2.59-1.16-2.59-2.59v-1.06Zm-16.32-10.61c0-.47,.38-.86,.86-.86h13.83c.47,0,.86,.38,.86,.86,0,.47-.38,.86-.86,.86h-13.83c-.47,0-.86-.38-.86-.86Zm-2.08-1.84c0-.27,.22-.49,.49-.49h33.79c.27,0,.49,.22,.49,.49s-.22,.49-.49,.49h-33.79c-.27,0-.49-.22-.49-.49Zm-59.04,2.79h-2.98s.26-1.84,.26-1.84l2.63,.03,.08,1.81Z"/>
  </g>
</svg>