<?xml version="1.0" encoding="UTF-8"?>
<svg id="Layer_1" data-name="Layer 1" xmlns="http://www.w3.org/2000/svg" xmlns:xlink="http://www.w3.org/1999/xlink" viewBox="0 0 219.21 205.9">
  <defs>
    <style>
      .cls-1 {
        fill: none;
      }

      .cls-2 {
        clip-path: url(#clippath);
      }

      .cls-3 {
        fill: #ec2024;
      }

      .cls-4 {
        fill: #fff;
      }

      .cls-5 {
        fill: #ffebd2;
        stroke: #c42126;
        stroke-miterlimit: 10;
        stroke-width: 2px;
      }
    </style>
    <clipPath id="clippath">
      <circle class="cls-1" cx="109.61" cy="102.95" r="65.22"/>
    </clipPath>
  </defs>
  <circle class="cls-5" cx="109.61" cy="102.95" r="85.55"/>
  <circle class="cls-3" cx="109.61" cy="102.95" r="65.22"/>
  <g class="cls-2">
    <g>
      <path class="cls-4" d="M75.38,99.38c.08-1.16,.15-2.24,.24-3.49,3.79,0,7.47,0,11.15,0,2.68,0,3.49-.75,3.87-3.84-1.2-.07-2.39-.2-3.59-.21-19.54-.23-28.62-.48-48.16-.62-2.61-.02-5.23,.65-7.85,.78-2.67,.13-4.51-2.5-3.3-4.8,.42-.79,1.79-1.5,2.74-1.51,2.24-.02,4.47-.44,6.77,.61,1.44,.66,3.44,.11,5.18,.09,18.9-.22,27.33-.44,46.22-.66,.91-.01,1.96,.31,2.23-1.18,.05-.25,1.36-.39,2.08-.38,1.6,.03,3.11,.09,3.78-1.84,.11-.32,.8-.57,1.25-.63,.74-.1,1.51-.03,2.35-.03,.1-.86,.17-1.49,.25-2.26h15.41c.1,.63,.2,1.3,.33,2.16,.7,.03,1.38,.09,2.07,.1,7.12,0,14.24,.05,21.36-.03,1.48-.02,2,.4,2.13,1.9,.35,4.05,.88,8.09,1.37,12.34h9.19v6.24h8.75c0,3.06,.01,5.82-.02,8.58,0,.28-.26,.56-.44,.82-.11,.15-.31,.23-.45,.36-2.89,2.75-6.17,3.75-10.29,3.73-31.26-.18-62.51-.1-93.77-.1-.9,0-1.8,0-2.96,0,.29-.55,.43-.95,.68-1.26,3.57-4.52,7.19-9,10.71-13.56,.82-1.06,1.69-1.36,2.96-1.31,2.51,.1,5.02,.03,7.76,.03Zm46.9-4.68c-3.84,.29-5.75-1.65-6.83-5.02-.89,3.6-3.17,5.12-6.85,5.08,3.29,1.99,3.67,4.7,2.75,8.02,2.87-2.35,5.5-2.14,8.42-.02-1.4-3.47-.46-5.95,2.51-8.05Z"/>
      <path class="cls-4" d="M80.17,116.52h3.76c-.28,2.78,.05,5.49,2.48,7.09,1.37,.9,3.21,1.5,4.83,1.49,4.07-.04,6.17-3.04,6.27-8.49h3.72c.38,6.16,2.86,9.15,7.29,8.87,4.22-.27,6.59-3.57,6.28-8.88h4.12c-.53,2.73-.39,5.4,1.86,7.14,1.35,1.03,3.21,1.87,4.87,1.93,4.45,.14,6.85-3.38,6.49-9.09h4.24c-.65,2.85-.4,5.52,1.89,7.61,1.47,1.33,3.2,1.89,5.18,1.76,4.32-.3,6.54-3.72,5.98-9.36h3.86c2.07,3.81,1.26,7.18-1.53,9.9-2.16,2.11-4.7,3.85-7.81,4.45-1.77,.34-3.52,.92-5.29,.99-2.09,.08-4.2-.3-6.3-.43-1.13-.07-2.36-.29-3.4,.03-2.7,.82-5.3,.8-8-.01-.99-.3-2.23-.34-3.2-.02-2.7,.89-5.29,.81-8,.06-1.06-.29-2.33-.31-3.37-.01-2.7,.78-5.3,.8-8-.04-.98-.31-2.21-.29-3.19,.01-2.7,.83-5.3,.82-8,.02-1.04-.31-2.33-.29-3.38,.02-2.64,.78-5.2,.84-7.81-.01-.66-.22-1.38-.28-2.08-.37-4.68-.59-8.43-2.76-11.01-6.72-1.62-2.5-1.55-3.31-.28-7.89h3.76c.1,5.31,2.63,8.4,6.83,8.46,4.18,.06,6.65-2.9,6.93-8.49Z"/>
      <path class="cls-4" d="M142.88,116.45c2.48,0,3.44,.77,3.43,2.75-.01,1.87-1.6,3.42-3.47,3.41-1.89-.02-3.42-1.56-3.42-3.45,0-1.97,.94-2.7,3.46-2.7Z"/>
      <path class="cls-4" d="M129.33,119.18c-.82,.96-1.48,2.34-2.52,2.75-.99,.39-2.76,.17-3.48-.52-.79-.75-.94-2.35-1-3.59-.02-.43,1.05-1.11,1.72-1.31,.77-.23,1.67,0,2.51-.07,1.79-.17,2.2,.96,2.77,2.74Z"/>
      <path class="cls-4" d="M108.23,116.46c2.76,0,3.29,.36,3.28,2.25-.01,1.92-1.53,3.41-3.47,3.39-1.94-.02-3.4-1.53-3.38-3.48,.02-1.85,.53-2.16,3.57-2.16Z"/>
      <path class="cls-4" d="M90.71,116.46c3.1,0,3.43,.19,3.39,2.06-.03,1.83-1.51,3.31-3.34,3.36-1.89,.05-3.47-1.5-3.49-3.42-.02-1.78,.35-2,3.44-2.01Z"/>
      <path class="cls-4" d="M73.46,116.46c.13,0,.26-.01,.39,0,1.15,.14,2.75-.61,2.91,1.49,.12,1.58-1.06,3.24-2.65,3.57-1.63,.34-2.93-.24-3.79-1.66-1.2-2-.37-3.41,1.99-3.42,.39,0,.77,0,1.16,0h0Z"/>
    </g>
  </g>
</svg>