<svg xmlns="http://www.w3.org/2000/svg" viewBox="0 0 100 100">
  <defs>
    <!-- Rich Drop Shadow -->
    <filter id="drop-shadow" x="-20%" y="-20%" width="140%" height="140%">
      <feDropShadow dx="0" dy="3" stdDeviation="3" flood-color="rgba(0,0,0,0.5)" />
    </filter>
    <!-- Glowing Neon Accents -->
    <filter id="glow" x="-50%" y="-50%" width="200%" height="200%">
      <feGaussianBlur stdDeviation="2" result="blur" />
      <feMerge>
        <feMergeNode in="blur" />
        <feMergeNode in="SourceGraphic" />
      </feMerge>
    </filter>
    
    <!-- Metallic/Gloss Gradients -->
    <linearGradient id="mainGrad" x1="0%" y1="0%" x2="0%" y2="100%">
      <stop offset="0%" stop-color="#8b9e63" />
      <stop offset="100%" stop-color="#556b2f" />
    </linearGradient>
    <linearGradient id="lightGrad" x1="0%" y1="0%" x2="0%" y2="100%">
      <stop offset="0%" stop-color="#ffffff" stop-opacity="0.3" />
      <stop offset="100%" stop-color="#8b9e63" />
    </linearGradient>
    <linearGradient id="darkGrad" x1="0%" y1="0%" x2="0%" y2="100%">
      <stop offset="0%" stop-color="#556b2f" />
      <stop offset="100%" stop-color="#3e4f20" />
    </linearGradient>
    <linearGradient id="accentGrad" x1="0%" y1="0%" x2="100%" y2="100%">
      <stop offset="0%" stop-color="#ff3300" stop-opacity="0.8" />
      <stop offset="100%" stop-color="#ff3300" stop-opacity="0.1" />
    </linearGradient>
    <radialGradient id="baseGrad" cx="50%" cy="50%" r="50%">
      <stop offset="60%" stop-color="#1a240c" stop-opacity="0.8"/>
      <stop offset="100%" stop-color="#1a240c" stop-opacity="0"/>
    </radialGradient>
  </defs>

  <!-- High-Tech Holographic Base -->
  
    <!-- High-tech projected base ring -->
    <ellipse cx="50" cy="88" rx="40" ry="8" fill="url(#baseGrad)" stroke="url(#accentGrad)" stroke-width="1.5" opacity="0.8" />
    <ellipse cx="50" cy="88" rx="36" ry="6" fill="none" stroke="#ff3300" stroke-width="0.5" opacity="0.6" stroke-dasharray="4 2" />
    <circle cx="50" cy="88" r="2" fill="#ff3300" />
  

  <!-- Premium air-force / red -->
  <g filter="url(#drop-shadow)">
    
    <g transform="translate(0,-10)">
      <!-- Fuselage -->
      <polygon points="50,10 42,30 40,65 45,85 55,85 60,65 58,30" fill="url(#mainGrad)" stroke="#1a240c" stroke-width="1.5" />
      <!-- Wings -->
      <polygon points="40,45 15,65 15,75 42,65" fill="url(#mainGrad)" stroke="#1a240c" stroke-width="1" />
      <polygon points="60,45 85,65 85,75 58,65" fill="url(#mainGrad)" stroke="#1a240c" stroke-width="1" />
      <!-- Engine Glow -->
      <circle cx="46" cy="85" r="4" fill="#ff3300" filter="url(#glow)" />
      <circle cx="54" cy="85" r="4" fill="#ff3300" filter="url(#glow)" />
      <polygon points="44,87 48,87 46,95" fill="#ff3300" opacity="0.8" />
      <polygon points="52,87 56,87 54,95" fill="#ff3300" opacity="0.8" />
      <!-- Canopy -->
      <polygon points="50,25 45,40 50,55 55,40" fill="#ff3300" opacity="0.9" />
      <polygon points="50,25 47,38 50,45" fill="#ffffff" opacity="0.6" />
    </g>
  
  </g>
</svg>