<svg xmlns="http://www.w3.org/2000/svg" viewBox="0 0 100 100">
  <defs>
    <!-- Rich Drop Shadow -->
    <filter id="drop-shadow" x="-20%" y="-20%" width="140%" height="140%">
      <feDropShadow dx="0" dy="3" stdDeviation="3" flood-color="rgba(0,0,0,0.5)" />
    </filter>
    <!-- Glowing Neon Accents -->
    <filter id="glow" x="-50%" y="-50%" width="200%" height="200%">
      <feGaussianBlur stdDeviation="2" result="blur" />
      <feMerge>
        <feMergeNode in="blur" />
        <feMergeNode in="SourceGraphic" />
      </feMerge>
    </filter>
    
    <!-- Metallic/Gloss Gradients -->
    <linearGradient id="mainGrad" x1="0%" y1="0%" x2="0%" y2="100%">
      <stop offset="0%" stop-color="#8b9e63" />
      <stop offset="100%" stop-color="#556b2f" />
    </linearGradient>
    <linearGradient id="lightGrad" x1="0%" y1="0%" x2="0%" y2="100%">
      <stop offset="0%" stop-color="#ffffff" stop-opacity="0.3" />
      <stop offset="100%" stop-color="#8b9e63" />
    </linearGradient>
    <linearGradient id="darkGrad" x1="0%" y1="0%" x2="0%" y2="100%">
      <stop offset="0%" stop-color="#556b2f" />
      <stop offset="100%" stop-color="#3e4f20" />
    </linearGradient>
    <linearGradient id="accentGrad" x1="0%" y1="0%" x2="100%" y2="100%">
      <stop offset="0%" stop-color="#ff3300" stop-opacity="0.8" />
      <stop offset="100%" stop-color="#ff3300" stop-opacity="0.1" />
    </linearGradient>
    <radialGradient id="baseGrad" cx="50%" cy="50%" r="50%">
      <stop offset="60%" stop-color="#1a240c" stop-opacity="0.8"/>
      <stop offset="100%" stop-color="#1a240c" stop-opacity="0"/>
    </radialGradient>
  </defs>

  <!-- High-Tech Holographic Base -->
  
    <!-- High-tech projected base ring -->
    <ellipse cx="50" cy="88" rx="40" ry="8" fill="url(#baseGrad)" stroke="url(#accentGrad)" stroke-width="1.5" opacity="0.8" />
    <ellipse cx="50" cy="88" rx="36" ry="6" fill="none" stroke="#ff3300" stroke-width="0.5" opacity="0.6" stroke-dasharray="4 2" />
    <circle cx="50" cy="88" r="2" fill="#ff3300" />
  

  <!-- Premium engineer / red -->
  <g filter="url(#drop-shadow)">
    
    <g transform="translate(0,-5)">
      <!-- Boxy Track Base -->
      <path d="M 12 75 L 22 85 L 75 85 L 85 75 Z" fill="url(#darkGrad)" />
      <polygon points="12,50 20,40 70,40 85,55 85,75 12,75" fill="url(#mainGrad)" stroke="#1a240c" stroke-width="1.5" />
      <!-- Huge Dozer Blade -->
      <path d="M 85 40 C 98 40, 100 85, 80 85" fill="none" stroke="url(#darkGrad)" stroke-width="8" stroke-linecap="round" />
      <path d="M 85 40 C 98 40, 100 85, 80 85" fill="none" stroke="#ff3300" stroke-width="1" stroke-linecap="round" />
      <!-- Extensible Crane -->
      <rect x="25" y="32" width="40" height="8" rx="2" fill="url(#darkGrad)" />
      <rect x="60" y="34" width="25" height="4" fill="url(#lightGrad)" />
      <polygon points="85,33 90,36 85,39" fill="#ff3300" filter="url(#glow)" />
      <!-- Warning Stripes -->
      <polygon points="30,32 35,32 30,40 25,40" fill="#ff3300" />
      <polygon points="40,32 45,32 40,40 35,40" fill="#ff3300" />
      <polygon points="50,32 55,32 50,40 45,40" fill="#ff3300" />
    </g>
  
  </g>
</svg>