<svg xmlns="http://www.w3.org/2000/svg" viewBox="0 0 100 100">
  <defs>
    <filter id="shadow" x="-20%" y="-20%" width="140%" height="140%">
      <feDropShadow dx="0" dy="2" stdDeviation="2" flood-color="rgba(0,0,0,0.5)" />
    </filter>
  </defs>
  <ellipse cx="50" cy="85" rx="42" ry="8" fill="#1a1a1a" opacity="0.6" />
  <g filter="url(#shadow)">
    <!-- Sandbag base -->
    <rect x="15" y="70" width="70" height="10" fill="#b08d6a" stroke="#8c7a65" stroke-width="1.5" rx="3" />
    <ellipse cx="25" cy="74" rx="6" ry="3" fill="#8c7a65" />
    <ellipse cx="38" cy="74" rx="6" ry="3" fill="#8c7a65" />
    <ellipse cx="50" cy="74" rx="6" ry="3" fill="#8c7a65" />
    <ellipse cx="62" cy="74" rx="6" ry="3" fill="#8c7a65" />
    <ellipse cx="75" cy="74" rx="6" ry="3" fill="#8c7a65" />
    
    <!-- Archway / Clay Bunker (Middle Eastern fortress style) -->
    <path d="M 20 70 L 20 35 C 20 20, 80 20, 80 35 L 80 70 Z" fill="#8c7a65" stroke="#6b5c4a" stroke-width="1.5" />
    <!-- Roof Details/Crenellations -->
    <rect x="25" y="22" width="10" height="5" fill="#6b5c4a" />
    <rect x="45" y="20" width="10" height="5" fill="#6b5c4a" />
    <rect x="65" y="22" width="10" height="5" fill="#6b5c4a" />
    
    <!-- Entrance Arch -->
    <path d="M 40 70 L 40 55 C 40 45, 60 45, 60 55 L 60 70 Z" fill="#2c2a26" />
    <path d="M 40 55 C 40 45, 60 45, 60 55" fill="none" stroke="#6b5c4a" stroke-width="2" />
    <!-- Windows -->
    <path d="M 25 55 L 25 45 C 25 40, 32 40, 32 45 L 32 55 Z" fill="#2c2a26" />
    <path d="M 68 55 L 68 45 C 68 40, 75 40, 75 45 L 75 55 Z" fill="#2c2a26" />
    <!-- Antennas -->
    <rect x="30" y="10" width="2" height="15" fill="#2c2a26" />
    <!-- Flag / Pennant -->
    <path d="M 32 12 L 40 15 L 32 18 Z" fill="#5c6a4a" />
  </g>
</svg>