<svg xmlns="http://www.w3.org/2000/svg" viewBox="0 0 100 100">
  <defs>
    <!-- Rich Drop Shadow -->
    <filter id="drop-shadow" x="-20%" y="-20%" width="140%" height="140%">
      <feDropShadow dx="0" dy="3" stdDeviation="3" flood-color="rgba(0,0,0,0.5)" />
    </filter>
    <!-- Glowing Neon Accents -->
    <filter id="glow" x="-50%" y="-50%" width="200%" height="200%">
      <feGaussianBlur stdDeviation="2" result="blur" />
      <feMerge>
        <feMergeNode in="blur" />
        <feMergeNode in="SourceGraphic" />
      </feMerge>
    </filter>
    
    <!-- Metallic/Gloss Gradients -->
    <linearGradient id="mainGrad" x1="0%" y1="0%" x2="0%" y2="100%">
      <stop offset="0%" stop-color="#8b9e63" />
      <stop offset="100%" stop-color="#556b2f" />
    </linearGradient>
    <linearGradient id="lightGrad" x1="0%" y1="0%" x2="0%" y2="100%">
      <stop offset="0%" stop-color="#ffffff" stop-opacity="0.3" />
      <stop offset="100%" stop-color="#8b9e63" />
    </linearGradient>
    <linearGradient id="darkGrad" x1="0%" y1="0%" x2="0%" y2="100%">
      <stop offset="0%" stop-color="#556b2f" />
      <stop offset="100%" stop-color="#3e4f20" />
    </linearGradient>
    <linearGradient id="accentGrad" x1="0%" y1="0%" x2="100%" y2="100%">
      <stop offset="0%" stop-color="#ff3300" stop-opacity="0.8" />
      <stop offset="100%" stop-color="#ff3300" stop-opacity="0.1" />
    </linearGradient>
    <radialGradient id="baseGrad" cx="50%" cy="50%" r="50%">
      <stop offset="60%" stop-color="#1a240c" stop-opacity="0.8"/>
      <stop offset="100%" stop-color="#1a240c" stop-opacity="0"/>
    </radialGradient>
  </defs>

  <!-- High-Tech Holographic Base -->
  
    <!-- High-tech projected base ring -->
    <ellipse cx="50" cy="88" rx="40" ry="8" fill="url(#baseGrad)" stroke="url(#accentGrad)" stroke-width="1.5" opacity="0.8" />
    <ellipse cx="50" cy="88" rx="36" ry="6" fill="none" stroke="#ff3300" stroke-width="0.5" opacity="0.6" stroke-dasharray="4 2" />
    <circle cx="50" cy="88" r="2" fill="#ff3300" />
  

  <!-- Premium infantry / red -->
  <g filter="url(#drop-shadow)">
    
    <g transform="translate(0,-5)">
      <!-- Legs -->
      <path d="M 45 60 L 40 85 L 35 85 L 40 60 Z" fill="url(#darkGrad)" />
      <path d="M 55 60 L 65 85 L 70 85 L 60 60 Z" fill="url(#darkGrad)" />
      <!-- Torso -->
      <polygon points="42,35 58,35 60,60 40,60" fill="url(#mainGrad)" stroke="#1a240c" stroke-width="1.5" />
      <rect x="44" y="40" width="12" height="15" fill="url(#darkGrad)" rx="2" />
      <!-- Weapon -->
      <rect x="40" y="50" width="40" height="5" fill="url(#darkGrad)" />
      <polygon points="40,50 32,54 32,58 40,54" fill="#1a240c" />
      <rect x="52" y="46" width="6" height="4" fill="#ff3300" filter="url(#glow)" />
      <!-- Arms -->
      <path d="M 42 40 L 30 55 L 45 55" fill="none" stroke="url(#mainGrad)" stroke-width="6" stroke-linecap="round" stroke-linejoin="round" />
      <!-- Helmet -->
      <circle cx="50" cy="25" r="9" fill="url(#lightGrad)" />
      <path d="M 40 25 C 40 10, 60 10, 60 25 Z" fill="url(#darkGrad)" />
      <path d="M 38 23 C 45 28, 55 28, 62 23 C 60 30, 40 30, 38 23 Z" fill="#1a240c" />
      <circle cx="48" cy="18" r="3" fill="#ff3300" filter="url(#glow)" />
    </g>
  
  </g>
</svg>