<svg xmlns="http://www.w3.org/2000/svg" viewBox="0 0 100 100">
  <defs>
    <!-- Rich Drop Shadow -->
    <filter id="drop-shadow" x="-20%" y="-20%" width="140%" height="140%">
      <feDropShadow dx="0" dy="3" stdDeviation="3" flood-color="rgba(0,0,0,0.5)" />
    </filter>
    <!-- Glowing Neon Accents -->
    <filter id="glow" x="-50%" y="-50%" width="200%" height="200%">
      <feGaussianBlur stdDeviation="2" result="blur" />
      <feMerge>
        <feMergeNode in="blur" />
        <feMergeNode in="SourceGraphic" />
      </feMerge>
    </filter>
    
    <!-- Metallic/Gloss Gradients -->
    <linearGradient id="mainGrad" x1="0%" y1="0%" x2="0%" y2="100%">
      <stop offset="0%" stop-color="#8b9e63" />
      <stop offset="100%" stop-color="#556b2f" />
    </linearGradient>
    <linearGradient id="lightGrad" x1="0%" y1="0%" x2="0%" y2="100%">
      <stop offset="0%" stop-color="#ffffff" stop-opacity="0.3" />
      <stop offset="100%" stop-color="#8b9e63" />
    </linearGradient>
    <linearGradient id="darkGrad" x1="0%" y1="0%" x2="0%" y2="100%">
      <stop offset="0%" stop-color="#556b2f" />
      <stop offset="100%" stop-color="#3e4f20" />
    </linearGradient>
    <linearGradient id="accentGrad" x1="0%" y1="0%" x2="100%" y2="100%">
      <stop offset="0%" stop-color="#ff3300" stop-opacity="0.8" />
      <stop offset="100%" stop-color="#ff3300" stop-opacity="0.1" />
    </linearGradient>
    <radialGradient id="baseGrad" cx="50%" cy="50%" r="50%">
      <stop offset="60%" stop-color="#1a240c" stop-opacity="0.8"/>
      <stop offset="100%" stop-color="#1a240c" stop-opacity="0"/>
    </radialGradient>
  </defs>

  <!-- High-Tech Holographic Base -->
  <ellipse cx="50" cy="88" rx="40" ry="8" fill="url(#baseGrad)" stroke="url(#accentGrad)" stroke-width="1.5" opacity="0.8" />
  <ellipse cx="50" cy="88" rx="36" ry="6" fill="none" stroke="#ff3300" stroke-width="0.5" opacity="0.6" stroke-dasharray="4 2" />
  <circle cx="50" cy="88" r="2" fill="#ff3300" />

  <!-- Premium infantry / red / bust -->
  <g filter="url(#drop-shadow)">
    <g transform="translate(0,-5)">
      <!-- Torso Base -->
      <path d="M 30 85 C 30 55, 40 50, 50 50 C 60 50, 70 55, 70 85 Z" fill="url(#mainGrad)" stroke="#1a240c" stroke-width="2" />
      
      <!-- Inner chest armor -->
      <path d="M 38 85 L 40 65 L 50 58 L 60 65 L 62 85 Z" fill="url(#darkGrad)" />
      <!-- Core glow -->
      <circle cx="50" cy="70" r="4" fill="#ff3300" filter="url(#glow)" opacity="0.8"/>

      <!-- Neck -->
      <rect x="43" y="45" width="14" height="10" fill="#1a240c" />

      <!-- Helmet Outline -->
      <path d="M 36 48 C 36 22, 64 22, 64 48 C 64 54, 60 56, 50 56 C 40 56, 36 54, 36 48 Z" fill="url(#mainGrad)" stroke="#1a240c" stroke-width="1.5" />
      
      <!-- Visor -->
      <path d="M 38 40 Q 50 48 62 40 L 60 48 Q 50 52 40 48 Z" fill="#ff3300" filter="url(#glow)" />
      
      <!-- Ear pieces -->
      <rect x="34" y="38" width="4" height="10" rx="2" fill="url(#darkGrad)" stroke="#1a240c" stroke-width="1" />
      <rect x="62" y="38" width="4" height="10" rx="2" fill="url(#darkGrad)" stroke="#1a240c" stroke-width="1" />
    </g>
  </g>
</svg>